HIERARCHY
ROOT hip
{
	OFFSET 0.000000 0.000000 0.000000 
	CHANNELS 6 Xposition Yposition Zposition Xrotation Zrotation Yrotation
	JOINT abdomen
	{
		OFFSET 0.000000 3.402643 0.000000 
		CHANNELS 3 Xrotation Zrotation Yrotation
		JOINT chest
		{
			OFFSET 0.000000 8.438565 -0.680529 
			CHANNELS 3 Xrotation Zrotation Yrotation
			JOINT neck
			{
				OFFSET 0.000000 10.207942 -0.272212 
				CHANNELS 3 Xrotation Zrotation Yrotation
				JOINT head
				{
					OFFSET 0.000000 3.130431 0.000000 
					CHANNELS 3 Xrotation Zrotation Yrotation
					End Site
					{
						OFFSET 0.000000 3.130435 0.000000 
					}
				}
			}
			JOINT lCollar
			{
				OFFSET 3.470700 6.669187 -0.816635 
				CHANNELS 3 Yrotation Zrotation Xrotation
				JOINT lShldr
				{
					OFFSET 3.198488 0.000000 0.000000 
					CHANNELS 3 Zrotation Yrotation Xrotation
					JOINT lForeArm
					{
						OFFSET 10.139888 0.000000 0.000000 
						CHANNELS 3 Yrotation Zrotation Xrotation
						JOINT lHand
						{
							OFFSET 8.370511 0.000000 0.000000 
							CHANNELS 3 Zrotation Yrotation Xrotation
							End Site
							{
								OFFSET 4.083176 0.000000 0.000000 
							}
						}
					}
				}
			}
			JOINT rCollar
			{
				OFFSET -3.470700 6.669187 -0.816635 
				CHANNELS 3 Yrotation Zrotation Xrotation
				JOINT rShldr
				{
					OFFSET -3.198488 0.000000 0.000000 
					CHANNELS 3 Zrotation Yrotation Xrotation
					JOINT rForeArm
					{
						OFFSET -10.139888 0.000000 0.000000 
						CHANNELS 3 Yrotation Zrotation Xrotation
						JOINT rHand
						{
							OFFSET -8.370511 0.000000 0.000000 
							CHANNELS 3 Zrotation Yrotation Xrotation
							End Site
							{
								OFFSET -4.083176 0.000000 0.000000 
							}
						}
					}
				}
			}
		}
	}
	JOINT lThigh
	{
		OFFSET 5.308129 -1.633274 1.361059 
		CHANNELS 3 Xrotation Zrotation Yrotation
		JOINT lShin
		{
			OFFSET -2.041588 -20.007561 0.000000 
			CHANNELS 3 Xrotation Zrotation Yrotation
			JOINT lFoot
			{
				OFFSET 0.000000 -19.190928 -1.224953 
				CHANNELS 3 Xrotation Yrotation Zrotation
				End Site
				{
					OFFSET 0.000000 -2.449906 4.627600 
				}
			}
		}
	}
	JOINT rThigh
	{
		OFFSET -5.308129 -1.633274 1.361059 
		CHANNELS 3 Xrotation Zrotation Yrotation
		JOINT rShin
		{
			OFFSET 2.041588 -20.007561 0.000000 
			CHANNELS 3 Xrotation Zrotation Yrotation
			JOINT rFoot
			{
				OFFSET 0.000000 -19.190928 -1.224953 
				CHANNELS 3 Xrotation Yrotation Zrotation
				End Site
				{
					OFFSET 0.000000 -2.449906 4.627600 
				}
			}
		}
	}
}
MOTION
Frames: 13
Frame Time: 0.033333
-16.400059 51.093571 105.748642 -3.535156 2.451172 -17.382397 43.544605 -13.704424 -11.408625 -13.125000 16.074219 9.143330 51.063168 8.107644 2.471410 -75.449219 2.763671 -2.568359 2.000000 -2.000000 0.000000 -76.582031 6.611328 0.097658 -65.171684 -1.367698 -2.537895 -9.671588 57.981266 -8.746268 -2.000000 2.000000 0.000000 89.746094 -17.412111 -25.188469 49.844337 1.923132 -1.997108 7.565015 -56.434738 -18.851063 -9.896107 0.447082 12.713723 30.405136 -4.635033 -2.929649 -7.472198 2.549568 3.100424 -19.162754 -11.928326 -5.870401 66.239326 1.845661 4.372070 14.852875 -13.750007 10.601103 
-16.807961 50.970787 107.418777 -4.580078 1.923854 -17.030706 44.738060 -13.708927 -12.349663 -12.958983 15.888671 9.143298 51.063168 8.107644 2.471410 -71.787109 2.177748 -1.914075 2.000000 -2.000000 0.000000 -73.662109 1.962891 1.230805 -64.808113 -1.226111 -2.458126 -7.574487 57.772938 -8.028583 -2.000000 2.000000 0.000000 89.111328 -16.630859 -23.925781 49.676804 1.743667 -1.938797 9.455907 -56.288849 -20.857601 -7.071660 0.729080 11.803229 31.653767 -5.045235 -2.841058 -10.579831 2.321964 3.180944 -23.090765 -12.516195 -7.707970 66.590660 1.826012 4.395847 12.143911 -13.591169 11.013662 
-17.260532 50.868980 109.369438 -4.951172 1.572266 -16.142311 44.827621 -13.392783 -13.252506 -12.783203 15.869141 9.192122 51.063168 8.107644 2.471410 -67.460938 1.181641 -1.376953 2.000000 -2.000000 0.000000 -71.083984 -2.480469 1.855469 -64.115852 -1.414178 -2.496078 -3.926080 58.087002 -5.492321 -2.000000 2.000000 0.000000 88.535156 -15.830078 -22.688211 49.324963 1.752846 -1.928483 9.939081 -56.226261 -21.464796 -4.081119 0.751531 11.404494 30.955297 -5.083620 -2.789394 -14.075539 1.752974 3.509972 -24.938948 -13.298933 -11.908391 60.990215 2.333738 4.185441 8.340841 -12.704763 8.061094 
-17.878117 50.901085 111.469948 -4.580078 1.572287 -14.716341 44.177811 -12.745034 -14.403008 -12.597656 15.859373 9.072266 51.063168 8.107644 2.471410 -63.486328 0.166016 -0.625000 2.000000 -2.000000 0.000000 -68.984375 -6.630860 2.597656 -63.588432 -1.462924 -2.493243 -0.679564 58.035934 -3.418600 -2.000000 2.000000 0.000000 88.583984 -15.742188 -22.011717 49.324963 1.752846 -1.928483 9.901102 -56.059746 -21.406055 -0.807008 0.970345 11.403152 28.473120 -4.722743 -2.799500 -16.614313 0.484404 4.006053 -25.361002 -14.072154 -15.384507 53.419865 2.900046 3.914310 5.612847 -10.792553 5.250571 
-18.575666 50.972683 113.472656 -3.876953 1.748047 -12.968750 42.796612 -11.869714 -15.640544 -12.421875 15.830078 8.947975 51.063168 8.107644 2.471410 -60.390629 -0.791014 0.009766 2.000000 -2.000000 0.000000 -67.617188 -10.322265 3.152549 -62.532410 -1.460091 -2.444516 2.144427 57.898563 -1.317477 -2.000000 2.000000 0.000000 89.091797 -15.498048 -21.643236 49.324963 1.752846 -1.928483 9.368409 -56.248756 -21.034750 1.891894 1.403689 10.854954 25.682554 -4.865546 -2.568383 -16.691891 -1.022291 4.905175 -24.812334 -13.708932 -16.859924 44.325893 3.710700 3.291071 3.527863 -9.200627 4.752613 
-19.322388 51.051952 115.193970 -2.832031 1.748047 -10.995797 41.015991 -10.883502 -16.734098 -12.031250 15.966799 8.916017 51.063168 8.107644 2.471410 -58.681644 -1.455078 0.400391 2.000000 -2.000000 0.000000 -66.777344 -12.822267 4.326172 -62.356117 -1.439459 -2.426159 3.718897 57.628712 0.247662 -2.000000 2.000000 0.000000 89.550781 -15.537109 -21.689455 49.500740 1.752846 -1.928484 7.563743 -56.190548 -19.250107 3.536906 1.988071 10.176250 24.819561 -4.905458 -2.504483 -15.433444 -2.365464 5.224319 -23.287188 -13.179243 -19.235502 33.229488 4.227970 2.703771 1.674203 -6.448851 3.521006 
-19.963465 51.090412 116.665878 -1.767578 1.914063 -9.052734 38.871647 -9.900030 -17.799047 -11.835938 16.123047 8.850368 51.063168 8.107644 2.471410 -58.349609 -1.679687 0.429687 2.000000 -2.000000 0.000000 -66.845703 -15.615234 5.690731 -62.356117 -1.439459 -2.426159 2.718872 56.532345 -0.000735 -2.000000 2.000000 0.000000 89.873047 -15.908204 -22.131580 49.676804 1.743667 -1.938797 6.071647 -56.441177 -17.637175 3.871303 2.935482 8.287319 25.879404 -5.403028 -2.193347 -13.499729 -2.623067 7.011361 -21.922998 -12.489376 -20.689325 23.361979 4.695765 2.119822 0.504417 -4.349893 2.887780 
-20.613213 51.021969 118.010521 -0.537109 2.089847 -7.050415 36.894112 -8.890618 -18.887527 -11.660155 16.103516 8.723413 51.063168 8.107644 2.471410 -59.042969 -1.601562 0.273437 2.000000 -2.000000 0.000000 -67.695313 -18.349609 7.047709 -62.884003 -1.440593 -2.445650 0.355371 55.183071 -0.212625 -2.000000 2.000000 0.000000 90.107422 -17.021484 -22.851561 49.852848 1.744236 -1.948543 5.922247 -56.723236 -16.956800 3.794256 3.717436 7.305323 27.130003 -5.237440 -2.452508 -11.231183 -3.213224 8.031907 -21.688890 -12.919284 -22.056721 15.069798 4.977531 1.453455 1.058282 -2.836567 1.379349 
-21.259380 50.911247 119.152649 0.527344 2.080075 -5.253560 35.271030 -7.992756 -19.705938 -11.660155 16.103516 8.723413 51.063168 8.107644 2.471410 -60.595703 -1.113281 -0.107422 2.000000 -2.000000 0.000000 -69.091797 -19.316406 8.600286 -63.060062 -1.431410 -2.455962 -1.291676 54.375130 -0.708103 -2.000000 2.000000 0.000000 89.873047 -17.968750 -24.329185 50.204689 1.735056 -1.958857 6.009715 -56.772755 -16.779621 3.198114 4.701184 5.596985 28.873463 -5.151049 -2.604411 -7.834444 -2.959826 8.647030 -21.570425 -13.679070 -22.788303 8.216332 5.172050 0.395388 2.017153 -1.478253 -0.147179 
-21.900108 50.797237 120.666252 1.406250 1.914063 -3.818033 33.965202 -6.973575 -20.087259 -11.660155 16.103516 8.723413 51.063168 8.107644 2.471410 -62.841797 -0.585938 -0.488282 2.000000 -2.000000 0.000000 -69.843750 -18.876955 9.443359 -62.707958 -1.430277 -2.436471 -1.403101 53.838299 -0.940462 -2.000000 2.000000 0.000000 89.716797 -18.574219 -25.419922 50.380753 1.725876 -1.969171 5.639578 -57.023846 -16.005890 2.732188 5.123248 4.021711 30.099874 -4.604139 -2.702572 -3.854419 -2.223044 8.974852 -21.990246 -13.883912 -23.618202 5.033368 5.189183 0.432998 -0.159754 -0.843374 -1.272122 
-22.825155 50.528790 122.281647 2.275391 1.572266 -2.753638 33.040852 -6.075190 -20.219360 -12.031250 15.966799 8.740234 51.063168 8.107644 2.471410 -65.263672 -0.019531 -1.250000 2.000000 -2.000000 0.000000 -70.927734 -18.242186 10.361328 -62.532166 -1.440026 -2.435905 -0.545747 53.270050 -0.995898 -2.000000 2.000000 0.000000 89.697266 -19.248047 -25.325483 50.380753 1.725876 -1.969171 4.060672 -57.081837 -14.305327 2.283207 6.353120 3.033656 31.856937 -4.526370 -2.857394 -0.522536 -1.991589 9.939660 -24.833715 -14.696969 -22.088039 12.248595 5.074909 1.035379 0.701772 -3.337859 -0.555277 
-23.776814 50.182884 123.892448 2.636719 1.044922 -2.939453 32.266464 -4.886071 -19.801516 -12.421875 15.830078 8.772196 51.063168 8.107644 2.471410 -67.177734 0.302735 -1.660158 2.000000 -2.000000 0.000000 -72.109375 -17.246094 11.325231 -61.828205 -1.457824 -2.405534 0.144713 53.034798 -1.007872 -2.000000 2.000000 0.000000 89.287109 -19.707031 -25.136721 50.204689 1.735056 -1.958857 2.216293 -57.219780 -12.745885 2.535247 7.628300 2.578877 33.099003 -4.458371 -2.912524 2.527366 -1.044028 10.246800 -26.521738 -13.943652 -20.305937 17.191324 4.920016 1.659760 2.903356 -5.425473 0.870036 
-24.445780 49.820614 125.425682 2.978516 0.000000 -4.394531 31.684763 -3.772792 -19.258493 -12.812500 15.537109 8.925781 51.063168 8.107644 2.471410 -69.238281 0.976562 -1.142578 2.000000 -2.000000 0.000000 -73.593750 -15.771484 12.148438 -61.124981 -1.526068 -2.401564 1.069727 53.093048 -1.163257 -2.000000 2.000000 0.000000 89.208984 -20.253906 -24.847132 50.204689 1.735056 -1.958857 0.081709 -57.517452 -10.633555 4.683080 10.149772 4.452479 33.284927 -4.385390 -2.907569 5.180529 -2.671686 13.793435 -26.795605 -12.157300 -18.177336 19.491882 4.912186 1.176656 6.927299 -6.708415 1.594885 
